<?xml version="1.0" encoding="UTF-8"?>
<svg width="100px" height="100px" viewBox="0 0 100 100" version="1.1" xmlns="http://www.w3.org/2000/svg" xmlns:xlink="http://www.w3.org/1999/xlink">
    <title>bookmark</title>
    <g id="Page-1" stroke="none" stroke-width="1" fill="none" fill-rule="evenodd">
        <g id="Artboord-bookmark" transform="translate(-412, -295)" fill="#000000" fill-rule="nonzero">
            <g id="bookmark" transform="translate(462, 345) scale(-1, 1) translate(-462, -345)translate(412, 295)">
                <g transform="translate(31, 10)" id="Shape">
                    <path d="M18.5,53.4960595 L32,67 L32,8.7007881 C32,7.21265386 30.7904,6 29.3,6 L7.7,6 C6.2096,6 5,7.2018507 5,8.67918179 L5,67 L18.5,53.4960595 Z M38,79 L19,60.1994288 L0,79 L0,8.03590127 C0,3.60433807 3.65342857,0 8.14285714,0 L29.8571429,0 C34.3465714,0 38,3.61508125 38,8.05738764 L38,79 Z"></path>
                </g>
            </g>
        </g>
    </g>
</svg>